<?xml version="1.0" encoding="UTF-8"?><svg id="b" xmlns="http://www.w3.org/2000/svg" viewBox="0 0 690.96 189.16"><g id="c"><rect width="690.96" height="189.16" style="fill:none;"/><g><g id="d"><g><path d="M150.3,68.64v51.89c0,3.07-1.64,5.91-4.3,7.45l-44.94,25.94c-2.66,1.54-5.94,1.54-8.6,0l-44.94-25.94c-2.66-1.54-4.3-4.37-4.3-7.45v-51.89c0-3.07,1.64-5.91,4.3-7.45l44.94-25.95c2.66-1.54,5.94-1.54,8.6,0l44.94,25.94c2.66,1.54,4.3,4.37,4.3,7.45h0Z" style="fill:#4f46e5;"/><g><path d="M105.28,88.22c-4.97,2.87-13.11,2.87-18.08,0l-32.77-18.92c-4.97-2.87-4.97-7.57,0-10.44l32.77-18.92c4.97-2.87,13.11-2.87,18.08,0l32.77,18.92c4.97,2.87,4.97,7.57,0,10.44l-32.77,18.92h0Z" style="fill:#4338ca;"/><path d="M95.47,143.45c0,5.74-4.07,8.09-9.04,5.22l-32.77-18.92c-4.97-2.87-9.04-9.92-9.04-15.66v-37.85c0-5.74,4.07-8.09,9.04-5.22l32.77,18.92c4.97,2.87,9.04,9.92,9.04,15.66v37.85h0Z" style="fill:#312e81;"/><path d="M148.66,113.82c0,5.74-4.07,12.79-9.04,15.66l-32.77,18.92c-4.97,2.87-9.04,.52-9.04-5.22v-37.85c0-5.74,4.07-12.79,9.04-15.66l32.77-18.92c4.97-2.87,9.04-.52,9.04,5.22v37.85Z" style="fill:#3730a3;"/></g></g><ellipse cx="95.93" cy="64.31" rx="7.65" ry="4.42" style="fill:#fff;"/><ellipse cx="95.93" cy="78.53" rx="7.65" ry="4.42" style="fill:#fff;"/><ellipse cx="95.93" cy="50.1" rx="7.65" ry="4.42" style="fill:#fff;"/><ellipse cx="117.22" cy="64.31" rx="7.65" ry="4.42" style="fill:#fff;"/><ellipse cx="73.61" cy="64.31" rx="7.65" ry="4.42" style="fill:#fff;"/><ellipse cx="56.57" cy="86.51" rx="4.37" ry="7.57" transform="translate(-35.68 39.87) rotate(-30)" style="fill:#fff;"/><ellipse cx="56.57" cy="102.35" rx="4.37" ry="7.57" transform="translate(-43.6 42) rotate(-30)" style="fill:#fff;"/><ellipse cx="56.57" cy="118.19" rx="4.37" ry="7.57" transform="translate(-51.52 44.12) rotate(-30)" style="fill:#fff;"/><ellipse cx="83.68" cy="102.35" rx="4.37" ry="7.57" transform="translate(-39.96 55.55) rotate(-30)" style="fill:#fff;"/><ellipse cx="83.68" cy="118.2" rx="4.37" ry="7.57" transform="translate(-47.89 57.68) rotate(-30)" style="fill:#fff;"/><ellipse cx="83.68" cy="134.03" rx="4.37" ry="7.57" transform="translate(-55.81 59.8) rotate(-30)" style="fill:#fff;"/><ellipse cx="111.42" cy="102.71" rx="7.57" ry="4.37" transform="translate(-33.24 147.85) rotate(-60)" style="fill:#fff;"/><ellipse cx="111.42" cy="131.1" rx="7.57" ry="4.37" transform="translate(-57.83 162.05) rotate(-60)" style="fill:#fff;"/><ellipse cx="136.47" cy="87.71" rx="7.57" ry="4.37" transform="translate(-7.72 162.05) rotate(-60)" style="fill:#fff;"/><ellipse cx="136.47" cy="117.18" rx="7.57" ry="4.37" transform="translate(-33.24 176.78) rotate(-60)" style="fill:#fff;"/></g><g><path d="M177.58,119.8v-48.1h11.38v19.08l17.35-19.08h13.9l-19.01,20.59,19.94,27.5h-13.18l-14.11-19.58-4.9,5.4v14.18h-11.38Z"/><path d="M225.46,119.8v-35.71h9.58l1.37,4.75c.82-1.34,2.17-2.64,4.07-3.89,1.9-1.25,4.21-1.87,6.95-1.87,4.61,0,7.76,1.29,9.47,3.85,1.7,2.57,2.56,6.28,2.56,11.12v21.74h-10.94v-19.01c0-1.68-.1-3.21-.29-4.61-.19-1.39-.66-2.51-1.4-3.35-.75-.84-2-1.26-3.78-1.26-2.3,0-3.98,.83-5.04,2.48-1.06,1.66-1.58,4.12-1.58,7.38v18.36h-10.94Z"/><path d="M279.03,120.66c-3.17,0-5.65-.59-7.45-1.76-1.8-1.18-3.07-2.89-3.82-5.15-.74-2.26-1.12-4.99-1.12-8.21v-21.46h10.94v19.94c0,3.26,.49,5.44,1.48,6.52,.98,1.08,2.36,1.62,4.14,1.62,2.16,0,3.73-.72,4.72-2.16,.98-1.44,1.48-3.82,1.48-7.13v-18.79h11.02v35.71h-9.5l-1.51-5.04c-1.06,1.78-2.36,3.2-3.92,4.28-1.56,1.08-3.71,1.62-6.44,1.62Z"/><path d="M324.1,120.66c-3.94,0-7.26-.79-9.97-2.38-2.71-1.58-4.78-3.8-6.19-6.66-1.42-2.86-2.12-6.16-2.12-9.9s.77-7.02,2.3-9.83c1.54-2.81,3.68-4.98,6.44-6.52,2.76-1.54,5.94-2.3,9.54-2.3,2.06,0,4.12,.29,6.16,.86,2.04,.58,3.94,1.55,5.69,2.92,1.75,1.37,3.18,3.23,4.28,5.58l-9.14,3.31c-.58-1.54-1.43-2.62-2.56-3.24-1.13-.62-2.39-.94-3.78-.94-1.3,0-2.54,.32-3.74,.97-1.2,.65-2.17,1.72-2.92,3.2-.75,1.49-1.12,3.5-1.12,6.05s.38,4.64,1.15,6.16c.77,1.51,1.74,2.59,2.92,3.24,1.18,.65,2.41,.97,3.71,.97,1.54,0,2.83-.3,3.89-.9,1.06-.6,1.9-1.43,2.52-2.48l8.93,3.24c-1.2,2.16-2.69,3.88-4.46,5.15-1.78,1.27-3.66,2.17-5.65,2.7-1.99,.53-3.95,.79-5.87,.79Z"/><path d="M345.12,119.8v-48.1h10.94v25.92l11.95-13.54h12.96l-13.97,14.9,15.05,20.81h-12.96l-9.29-12.96-3.74,3.96v9h-10.94Z"/><path d="M397.76,119.8c-2.93,0-5.26-.25-6.98-.76-1.73-.5-2.96-1.49-3.71-2.95-.74-1.46-1.12-3.59-1.12-6.37v-38.02h10.94v35.14c0,1.68,.33,2.77,1.01,3.28,.67,.5,1.92,.76,3.74,.76h3.1v8.93h-6.98Z"/><path d="M426.27,120.66c-3.84,0-7.24-.76-10.19-2.27-2.95-1.51-5.26-3.68-6.91-6.52-1.66-2.83-2.48-6.22-2.48-10.15s.88-7.08,2.63-9.86c1.75-2.78,4.08-4.94,6.98-6.48,2.9-1.54,6.08-2.3,9.54-2.3,3.94,0,7.31,.92,10.12,2.77,2.81,1.85,4.93,4.39,6.37,7.63,1.44,3.24,2.04,6.97,1.8,11.2h-26.42c.19,2.5,1.12,4.37,2.77,5.62,1.66,1.25,3.49,1.87,5.51,1.87,1.68,0,3.13-.25,4.36-.76s2.17-1.14,2.84-1.91l8.71,3.17c-1.87,2.74-4.21,4.75-7.02,6.05s-5.68,1.94-8.6,1.94Zm-8.57-22.46h16.27c-.05-2.3-.84-4.04-2.38-5.22-1.54-1.18-3.36-1.76-5.47-1.76s-3.9,.55-5.51,1.66c-1.61,1.1-2.58,2.88-2.92,5.33Z"/><path d="M471.12,120.66c-1.92,0-3.92-.46-6.01-1.37s-3.71-2.35-4.86-4.32l-1.37,4.82h-9.58v-48.1h10.94v17.28c1.15-1.97,2.77-3.44,4.86-4.43,2.09-.98,4.09-1.48,6.01-1.48,3.07,0,5.8,.75,8.17,2.23,2.38,1.49,4.24,3.61,5.58,6.37,1.34,2.76,2.02,6.08,2.02,9.97s-.67,7.26-2.02,10.12c-1.34,2.86-3.2,5.05-5.58,6.59-2.38,1.54-5.1,2.3-8.17,2.3Zm-3.46-8.5c2.11,0,3.95-.92,5.51-2.77,1.56-1.85,2.34-4.43,2.34-7.74s-.78-5.76-2.34-7.49c-1.56-1.73-3.4-2.59-5.51-2.59s-4.02,.8-5.58,2.41c-1.56,1.61-2.34,4.24-2.34,7.88s.78,6.34,2.34,7.92c1.56,1.58,3.42,2.38,5.58,2.38Z"/><path d="M509.28,120.66c-3.31,0-6.41-.67-9.29-2.02-2.88-1.34-5.21-3.42-6.98-6.23-1.78-2.81-2.66-6.35-2.66-10.62s.89-7.86,2.66-10.62c1.78-2.76,4.1-4.8,6.98-6.12,2.88-1.32,5.98-1.98,9.29-1.98s6.34,.66,9.22,1.98c2.88,1.32,5.21,3.36,6.98,6.12,1.78,2.76,2.66,6.3,2.66,10.62s-.89,7.81-2.66,10.62c-1.78,2.81-4.1,4.88-6.98,6.23-2.88,1.34-5.95,2.02-9.22,2.02Zm0-8.5c2.21,0,4.04-.79,5.51-2.38,1.46-1.58,2.2-4.25,2.2-7.99s-.76-6.44-2.27-7.96-3.32-2.27-5.44-2.27-4,.76-5.51,2.27-2.27,4.17-2.27,7.96,.74,6.41,2.23,7.99c1.49,1.58,3.34,2.38,5.54,2.38Z"/><path d="M533.47,119.8v-35.71h9.58l1.37,4.75c.82-1.34,2.17-2.64,4.07-3.89,1.9-1.25,4.21-1.87,6.95-1.87,4.61,0,7.76,1.29,9.47,3.85,1.7,2.57,2.56,6.28,2.56,11.12v21.74h-10.94v-19.01c0-1.68-.1-3.21-.29-4.61-.19-1.39-.66-2.51-1.4-3.35-.75-.84-2-1.26-3.78-1.26-2.3,0-3.98,.83-5.04,2.48-1.06,1.66-1.58,4.12-1.58,7.38v18.36h-10.94Z"/><path d="M591.79,120.66c-3.84,0-7.24-.76-10.19-2.27-2.95-1.51-5.26-3.68-6.91-6.52-1.66-2.83-2.48-6.22-2.48-10.15s.88-7.08,2.63-9.86c1.75-2.78,4.08-4.94,6.98-6.48,2.9-1.54,6.08-2.3,9.54-2.3,3.94,0,7.31,.92,10.12,2.77,2.81,1.85,4.93,4.39,6.37,7.63,1.44,3.24,2.04,6.97,1.8,11.2h-26.42c.19,2.5,1.12,4.37,2.77,5.62,1.66,1.25,3.49,1.87,5.51,1.87,1.68,0,3.13-.25,4.36-.76s2.17-1.14,2.84-1.91l8.71,3.17c-1.87,2.74-4.21,4.75-7.02,6.05s-5.68,1.94-8.6,1.94Zm-8.57-22.46h16.27c-.05-2.3-.84-4.04-2.38-5.22-1.54-1.18-3.36-1.76-5.47-1.76s-3.9,.55-5.51,1.66c-1.61,1.1-2.58,2.88-2.92,5.33Z"/><path d="M630.24,120.66c-4.18,0-7.79-.77-10.84-2.3-3.05-1.54-5.27-3.79-6.66-6.77l9.29-3.38c.53,1.49,1.55,2.6,3.06,3.35,1.51,.75,3.3,1.12,5.36,1.12,1.78,0,3.35-.28,4.72-.83,1.37-.55,2.05-1.38,2.05-2.48,0-.77-.41-1.42-1.22-1.94-.82-.53-2.26-.96-4.32-1.3l-6.41-1.08c-3.46-.58-6.26-1.75-8.42-3.53-2.16-1.78-3.24-4.15-3.24-7.13,0-2.5,.76-4.58,2.27-6.26,1.51-1.68,3.52-2.94,6.01-3.78,2.5-.84,5.21-1.26,8.14-1.26,3.41,0,6.56,.61,9.47,1.84,2.9,1.22,5.03,3.25,6.37,6.08l-9.22,3.38c-.34-1.3-1.13-2.17-2.38-2.63-1.25-.46-2.69-.68-4.32-.68-3.94,0-5.9,.96-5.9,2.88,0,.72,.33,1.31,1.01,1.76,.67,.46,1.8,.83,3.38,1.12l6.62,1.22c4.32,.77,7.51,1.9,9.58,3.38,2.06,1.49,3.1,3.72,3.1,6.7,0,2.79-.79,5.11-2.38,6.98s-3.7,3.26-6.34,4.18c-2.64,.91-5.57,1.37-8.78,1.37Z"/></g></g></g></svg>