<?xml version="1.0" encoding="UTF-8"?><svg id="b" xmlns="http://www.w3.org/2000/svg" viewBox="0 0 588.4 122.32"><g id="c"><text transform="translate(126.5 84.01)" style="font-family:AtkinsonHyperlegible-Bold, &apos;Atkinson Hyperlegible&apos;; font-size:72px; font-weight:700;"><tspan x="0" y="0" style="letter-spacing:-.02em;">K</tspan><tspan x="46.32" y="0" style="letter-spacing:-.02em;">n</tspan><tspan x="86.07" y="0" style="letter-spacing:-.01em;">u</tspan><tspan x="126.06" y="0" style="letter-spacing:-.02em;">c</tspan><tspan x="162.05" y="0" style="letter-spacing:-.03em;">k</tspan><tspan x="201.04" y="0" style="letter-spacing:-.01em;">l</tspan><tspan x="222.74" y="0" style="letter-spacing:-.02em;">e</tspan><tspan x="262.15" y="0" style="letter-spacing:-.01em;">b</tspan><tspan x="304.2" y="0" style="letter-spacing:-.01em;">o</tspan><tspan x="344.41" y="0" style="letter-spacing:-.02em;">n</tspan><tspan x="384.29" y="0" style="letter-spacing:-.02em;">e</tspan><tspan x="423.46" y="0">s</tspan></text><g id="d"><g><path d="M108.26,34.93v52.47c0,3.11-1.66,5.98-4.35,7.53l-45.43,26.23c-2.69,1.55-6,1.55-8.7,0L4.35,94.92c-2.69-1.55-4.35-4.42-4.35-7.53V34.93c0-3.11,1.66-5.98,4.35-7.53L49.78,1.16c2.69-1.55,6-1.55,8.7,0l45.43,26.23c2.69,1.55,4.35,4.42,4.35,7.53h0Z" style="fill:#4f46e5;"/><g><path d="M62.75,54.73c-5.03,2.9-13.26,2.9-18.28,0L11.32,35.59c-5.03-2.9-5.03-7.65,0-10.56L44.46,5.9c5.03-2.9,13.26-2.9,18.28,0l33.14,19.13c5.03,2.9,5.03,7.65,0,10.56l-33.14,19.13h0Z" style="fill:#4338ca;"/><path d="M52.82,110.57c0,5.81-4.11,8.18-9.14,5.28L10.54,96.72c-5.03-2.9-9.14-10.03-9.14-15.83V42.61c0-5.81,4.11-8.18,9.14-5.28l33.14,19.13c5.03,2.9,9.14,10.03,9.14,15.83v38.27h0Z" style="fill:#312e81;"/><path d="M106.6,80.62c0,5.81-4.11,12.93-9.14,15.83l-33.14,19.13c-5.03,2.9-9.14,.53-9.14-5.28v-38.27c0-5.81,4.11-12.93,9.14-15.83l33.14-19.13c5.03-2.9,9.14-.53,9.14,5.28v38.27Z" style="fill:#3730a3;"/></g></g><ellipse cx="53.29" cy="30.56" rx="7.74" ry="4.47" style="fill:#fff;"/><ellipse cx="53.29" cy="44.93" rx="7.74" ry="4.47" style="fill:#fff;"/><ellipse cx="53.29" cy="16.19" rx="7.74" ry="4.47" style="fill:#fff;"/><ellipse cx="74.82" cy="30.56" rx="7.74" ry="4.47" style="fill:#fff;"/><ellipse cx="30.72" cy="30.56" rx="7.74" ry="4.47" style="fill:#fff;"/><ellipse cx="13.49" cy="53" rx="4.42" ry="7.66" transform="translate(-24.69 13.84) rotate(-30)" style="fill:#fff;"/><ellipse cx="13.49" cy="69.02" rx="4.42" ry="7.66" transform="translate(-32.7 15.99) rotate(-30)" style="fill:#fff;"/><ellipse cx="13.49" cy="85.04" rx="4.42" ry="7.66" transform="translate(-40.71 18.14) rotate(-30)" style="fill:#fff;"/><ellipse cx="40.91" cy="69.02" rx="4.42" ry="7.66" transform="translate(-29.03 29.7) rotate(-30)" style="fill:#fff;"/><ellipse cx="40.91" cy="85.04" rx="4.42" ry="7.66" transform="translate(-37.04 31.85) rotate(-30)" style="fill:#fff;"/><ellipse cx="40.91" cy="101.05" rx="4.42" ry="7.66" transform="translate(-45.05 33.99) rotate(-30)" style="fill:#fff;"/><ellipse cx="68.95" cy="69.39" rx="7.66" ry="4.42" transform="translate(-25.61 94.41) rotate(-60)" style="fill:#fff;"/><ellipse cx="68.95" cy="98.09" rx="7.66" ry="4.42" transform="translate(-50.47 108.76) rotate(-60)" style="fill:#fff;"/><ellipse cx="94.28" cy="54.22" rx="7.66" ry="4.42" transform="translate(.19 108.76) rotate(-60)" style="fill:#fff;"/><ellipse cx="94.28" cy="84.01" rx="7.66" ry="4.42" transform="translate(-25.61 123.66) rotate(-60)" style="fill:#fff;"/></g></g></svg>